<svg height="512pt" viewBox="-46 0 512 512.00002" width="512pt" xmlns="http://www.w3.org/2000/svg"><path d="m173.714844 265.144531h73.140625v64h-73.140625zm0 0" fill="#f6bb92"/><path d="m324.570312 201.144531h-32v-45.714843h32c12.625 0 22.859376 10.230468 22.859376 22.855468s-10.234376 22.859375-22.859376 22.859375zm0 0" fill="#f6bb92"/><path d="m96 201.144531h41.144531v-45.714843h-41.144531c-12.625 0-22.855469 10.230468-22.855469 22.855468s10.230469 22.859375 22.855469 22.859375zm0 0" fill="#f6bb92"/><path d="m256 320h91.429688c40.394531 0 73.140624 32.746094 73.140624 73.144531v118.855469h-420.570312v-118.855469c0-40.398437 32.746094-73.144531 73.144531-73.144531zm0 0" fill="#cdcdcd"/><path d="m347.429688 457.144531h73.140624v54.855469h-73.140624zm0 0" fill="#fdc9a6"/><path d="m0 457.144531h73.144531v54.855469h-73.144531zm0 0" fill="#fdc9a6"/><path d="m118.855469 100.570312v91.429688c0 50.496094 40.9375 91.429688 91.429687 91.429688 50.496094 0 91.429688-40.933594 91.429688-91.429688v-91.429688zm0 0" fill="#fdc9a6"/><path d="m219.429688 201.144531h-18.285157c-5.050781 0-9.144531-4.09375-9.144531-9.140625-.003906-.984375.15625-1.960937.464844-2.894531l9.144531-27.425781c1.597656-4.796875 6.777344-7.394532 11.574219-5.796875 4.796875 1.59375 7.394531 6.777343 5.796875 11.574219l-5.15625 15.398437h5.605469c5.046874 0 9.140624 4.089844 9.140624 9.140625s-4.09375 9.144531-9.140624 9.144531zm0 0" fill="#834b10"/><path d="m155.429688 320 45.714843 54.855469h18.257813l45.742187-54.855469zm0 0" fill="#f6bb92"/><path d="m228.570312 420.570312h-36.570312l-9.140625-45.714843h54.855469zm0 0" fill="#176177"/><path d="m237.714844 512h-54.855469l9.140625-91.429688h36.570312zm0 0" fill="#1a6c85"/><g fill="#834b10"><path d="m310.855469 27.429688h-155.425781c-20.199219 0-36.574219 16.371093-36.574219 36.570312v91.429688l36.574219-54.859376h146.285156c20.199218 0 36.570312-16.371093 36.570312-36.570312v-64zm0 0"/><path d="m164.570312 182.855469c-5.046874 0-9.140624-4.09375-9.140624-9.140625v-9.144532c0-5.046874 4.09375-9.140624 9.140624-9.140624 5.050782 0 9.144532 4.09375 9.144532 9.140624v9.144532c0 5.050781-4.09375 9.140625-9.144532 9.140625zm0 0"/><path d="m256 182.855469c-5.050781 0-9.144531-4.09375-9.144531-9.140625v-9.144532c0-5.046874 4.09375-9.140624 9.144531-9.140624s9.144531 4.09375 9.144531 9.140624v9.144532c0 5.050781-4.09375 9.140625-9.144531 9.140625zm0 0"/><path d="m204.242188 242.515625c-1.902344 0-3.804688-.09375-5.695313-.285156l-.492187-.054688-.652344-.082031c-4.992188-.761719-8.417969-5.429688-7.652344-10.417969.730469-4.792969 5.078125-8.179687 9.902344-7.722656 9.628906 1.210937 19.335937-1.480469 26.972656-7.46875l5.484375-4.261719c3.890625-3.21875 9.652344-2.675781 12.875 1.214844 3.21875 3.886719 2.675781 9.652344-1.214844 12.871094-.132812.113281-.273437.222656-.414062.324218l-5.484375 4.261719c-9.589844 7.535157-21.433594 11.625-33.628906 11.621094zm0 0"/></g><path d="m265.144531 448h54.855469v18.285156h-54.855469zm0 0" fill="#b9b9b9"/><path d="m155.429688 320h-9.144532v82.285156l54.886719-27.457031zm0 0" fill="#d9d9d9"/><path d="m265.144531 320h9.140625v82.285156l-54.855468-27.402344zm0 0" fill="#d9d9d9"/></svg>