<svg height="480pt" viewBox="0 0 480 480" width="480pt" xmlns="http://www.w3.org/2000/svg"><path d="m400 320h32c8.839844 0 16 7.160156 16 16v64c0 8.839844-7.160156 16-16 16h-32v32h32c26.511719 0 48-21.488281 48-48v-64c0-26.511719-21.488281-48-48-48h-32zm0 0" fill="#999"/><path d="m384 480h-128c-8.839844 0-16-7.160156-16-16v-216h160v216c0 8.839844-7.160156 16-16 16zm0 0" fill="#ffcc5c"/><path d="m384 480h-128c-8.839844 0-16-7.160156-16-16v-16h160v16c0 8.839844-7.160156 16-16 16zm0 0" fill="#999"/><path d="m384 24c0 13.253906-10.746094 24-24 24s-24-10.746094-24-24 10.746094-24 24-24 24 10.746094 24 24zm0 0" fill="#ccc"/><path d="m360 24c0-11.417969-5.371094-20.671875-12-20.671875s-12 9.253906-12 20.671875 5.371094 20.671875 12 20.671875 12-9.253906 12-20.671875zm0 0" fill="#e6e6e6"/><path d="m288 96c0 17.671875-14.328125 32-32 32s-32-14.328125-32-32 14.328125-32 32-32 32 14.328125 32 32zm0 0" fill="#ccc"/><path d="m264 96c0-16.359375-8.953125-29.625-20-29.625s-20 13.265625-20 29.625 8.953125 29.625 20 29.625 20-13.265625 20-29.625zm0 0" fill="#e6e6e6"/><path d="m464 136c0 17.671875-14.328125 32-32 32s-32-14.328125-32-32 14.328125-32 32-32 32 14.328125 32 32zm0 0" fill="#ccc"/><path d="m440 136c0-16.359375-8.953125-29.625-20-29.625s-20 13.265625-20 29.625 8.953125 29.625 20 29.625 20-13.265625 20-29.625zm0 0" fill="#e6e6e6"/><path d="m416 224c0-17.671875-14.328125-32-32-32-7.609375 0-14.503906 2.769531-20 7.207031-5.496094-4.4375-12.390625-7.207031-20-7.207031-7.886719 0-15.023438 2.96875-20.601562 7.703125-5.582032-9.367187-15.703126-15.703125-27.398438-15.703125-15.390625 0-28.222656 10.871094-31.289062 25.351562-2.78125-.792968-5.671876-1.351562-8.710938-1.351562-17.671875 0-32 14.328125-32 32s14.328125 32 32 32c9.617188 0 18.136719-4.328125 24-11.039062 5.863281 6.710937 14.382812 11.039062 24 11.039062 10.710938 0 20.136719-5.3125 25.945312-13.390625 4.390626 12.429687 16.117188 21.390625 30.054688 21.390625 15.207031 0 27.886719-10.640625 31.136719-24.863281 14.222656-3.25 24.863281-15.929688 24.863281-31.136719zm0 0" fill="#e6e6e6"/><path d="m48 0h96v32h-96zm0 0" fill="#bf9945"/><path d="m48 0h72v32h-72zm0 0" fill="#ffcc5c"/><path d="m192 256v224h-192v-224l2.191406-3.289062c40.304688-60.453126 61.808594-131.480469 61.808594-204.136719v-16.574219h64v16.574219c0 72.65625 21.503906 143.683593 61.808594 204.128906zm0 0" fill="#a67c52"/><path d="m165.808594 252.710938c-40.304688-60.453126-61.808594-131.480469-61.808594-204.136719v-16.574219h-40v16.574219c0 72.65625-21.503906 143.683593-61.808594 204.128906l-2.191406 3.296875v224h168v-224zm0 0" fill="#c69c6d"/><path d="m0 272h192v160h-192zm0 0" fill="#bf9945"/><path d="m0 272h168v160h-168zm0 0" fill="#ffcc5c"/><path d="m144 352c0 26.507812-21.492188 48-48 48s-48-21.492188-48-48 21.492188-48 48-48 48 21.492188 48 48zm0 0" fill="#a67c52"/><path d="m120 352c0-25.640625-16.117188-46.425781-36-46.425781s-36 20.785156-36 46.425781 16.117188 46.425781 36 46.425781 36-20.785156 36-46.425781zm0 0" fill="#c69c6d"/><g fill="#737373"><path d="m264 336h16v112h-16zm0 0"/><path d="m296 336h16v112h-16zm0 0"/><path d="m328 336h16v112h-16zm0 0"/><path d="m360 336h16v112h-16zm0 0"/></g></svg>