<svg height="512" viewBox="0 0 512 512" width="512" xmlns="http://www.w3.org/2000/svg"><path d="m488 88v336h-432a32 32 0 0 1 -32-32v-304z" fill="#d6d6d4"/><path d="m56 360a32 32 0 0 0 -32 32v-336a32 32 0 0 1 32-32z" fill="#ebebe9"/><path d="m488 88v336h-423.7l390.03-336z" fill="#c7c7c5"/><g fill="#b0b0ae"><path d="m112 112a32 32 0 1 0 32 32 32.036 32.036 0 0 0 -32-32zm0 48a16 16 0 1 1 16-16 16.019 16.019 0 0 1 -16 16z"/><path d="m112 288a32 32 0 1 0 32 32 32.036 32.036 0 0 0 -32-32zm0 48a16 16 0 1 1 16-16 16.019 16.019 0 0 1 -16 16z"/><path d="m93.657 261.657 18.343-18.344 18.343 18.344 11.314-11.314-18.344-18.343 18.344-18.343-11.314-11.314-18.343 18.344-18.343-18.344-11.314 11.314 18.344 18.343-18.344 18.343z"/><path d="m197.264 175.5a61.888 61.888 0 0 0 -4.822-4.085l11.037-2.138-3.043-15.708-33.957 6.578a8 8 0 0 0 -6.24 9.794l8 32 15.522-3.88-4.009-16.037a47.534 47.534 0 0 1 6.555 5.135c12.583 11.824 16.641 29.059 12.062 51.224l15.669 3.237c7.201-34.855-5.147-55.196-16.774-66.12z"/><path d="m432 168a32 32 0 1 0 32 32 32.036 32.036 0 0 0 -32-32zm0 48a16 16 0 1 1 16-16 16.019 16.019 0 0 1 -16 16z"/></g><rect fill="#fec9a3" height="184" rx="72" width="144" x="240" y="32"/><path d="m360 256.001v-48h-96v48l48 183.999z" fill="#fec9a3"/><path d="m331.6 256a43.041 43.041 0 0 0 28.4-10.716v-61.284h-48-48v61.284a43.038 43.038 0 0 0 28.4 10.716z" fill="#feb784"/><path d="m457.7 280.425-65.7-16.425-32-8-48 16-48-16-32 8-65.7 16.425a40 40 0 0 0 -30.3 38.806v144.769h352v-144.769a40 40 0 0 0 -30.3-38.806z" fill="#374559"/><path d="m264 256 48 184 48-184.003-48 16.003z" fill="#bfbfbd"/><path d="m328 378.666v-93.866l-16-12.8-16 12.8v93.867l16 61.333z" fill="#95573a"/><path d="m248 328-8 32 72 80-48-184-32 8-24 56z" fill="#4c5d72"/><path d="m376 328 8 32-72 80 48-184 32 8 24 56z" fill="#4c5d72"/><path d="m200 352h16v96h-16z" fill="#22303d"/><path d="m408 352h16v96h-16z" fill="#22303d"/><path d="m440 368h48v72l-40-.003-48.161 6.88-7.839-54.877z" fill="#fec9a3"/><path d="m399.84 446.88-34.86 6.99-9.93-59.56 36.95-2.31z" fill="#e0e0de"/><path d="m364.98 453.87-156.98 34.13h-48a24.006 24.006 0 0 1 -24-24v-56l219.05-13.69z" fill="#374559"/><path d="m384 103.995h8a24 24 0 0 1 24 24 24 24 0 0 1 -24 24h-8a0 0 0 0 1 0 0v-48a0 0 0 0 1 0 0z" fill="#feb784"/><path d="m240 104h-8a24.071 24.071 0 0 0 -24 24 24.071 24.071 0 0 0 24 24h8z" fill="#feb784"/><circle cx="276" cy="115.998" fill="#7a432a" r="12"/><circle cx="348" cy="115.998" fill="#7a432a" r="12"/><path d="m328 160h-32a8 8 0 0 1 -7.589-10.53l16-48 15.178 5.059-12.489 37.471h20.9z" fill="#f7a468"/><path d="m378.65 64h-27.03a197.268 197.268 0 0 0 29 51.81c1.1 1.42 2.23 2.81 3.38 4.19v-32a55.357 55.357 0 0 0 -5.35-24z" fill="#7a432a"/><path d="m240 120v-55.015a25.753 25.753 0 0 1 32-24.985v24s-14.463 34.956-32 56z" fill="#7a432a"/><path d="m331.6 240h-39.2a43.073 43.073 0 0 1 -39.59-26.106 158.47 158.47 0 0 1 -12.81-62.422v-47.472l13.821 43.643a20.093 20.093 0 0 0 29.117 7.732 20.1 20.1 0 0 1 11.145-3.375h35.833a20.1 20.1 0 0 1 11.146 3.375l1.4.937a20.093 20.093 0 0 0 28.374-6.381l13.164-45.931v47.474a158.476 158.476 0 0 1 -12.812 62.423 43.075 43.075 0 0 1 -39.588 26.103z" fill="#7a432a"/><path d="m302.891 192h-14.891v-16h14.891c10.951 0 21.549-2.519 29.078-6.911l8.062 13.821c-10.049 5.86-23.239 9.09-37.14 9.09z" fill="#fec9a3"/><path d="m384 64h-112v-24a54.641 54.641 0 0 1 38.63-16h33.37a39.989 39.989 0 0 1 28.28 11.72c.57.57 1.12 1.15 1.65 1.76a39.8 39.8 0 0 1 10.07 26.52z" fill="#7a432a"/><path d="m338.82 24-33.18 40h-20.78l33.17-40z" fill="#8c5137"/><path d="m373.93 37.48-26.16 26.52h-22.48l35.72-36.2a39.848 39.848 0 0 1 11.27 7.92c.57.57 1.12 1.15 1.65 1.76z" fill="#8c5137"/><path d="m360 255.997-48 16.003 36.258 29.007z" fill="#e0e0de"/><path d="m312 272-48-16 11.741 45.007z" fill="#e0e0de"/><path d="m184 368h-48v72l40-.003 48.161 6.88 7.839-54.877z" fill="#fec9a3"/><path d="m488 408v56a24.006 24.006 0 0 1 -24 24h-48l-151.36-32.91 4.34-60.78z" fill="#3d4d63"/><path d="m296 432h16v16h-16z" fill="#22303d"/><path d="m328 432h16v16h-16z" fill="#22303d"/><path d="m264.64 455.09-40.48-8.21 7.84-54.88 36.98 2.31z" fill="#e0e0de"/></svg>